<svg xmlns="http://www.w3.org/2000/svg" viewBox="0 0 640 424" width="640" height="424" role="img" aria-label="Terminal whoami de checorazza">
  <defs>
    <linearGradient id="bg" x1="0" y1="0" x2="0" y2="1">
      <stop offset="0" stop-color="#F0F9FF"/>
      <stop offset="1" stop-color="#E0F2FE"/>
    </linearGradient>
  </defs>
  <rect width="640" height="424" rx="14" fill="url(#bg)"/>
  <rect x="1" y="1" width="638" height="422" rx="13" fill="none" stroke="#0EA5E9" stroke-opacity="0.45"/>
  <rect width="640" height="38" rx="14" fill="#BAE6FD"/>
  <rect y="24" width="640" height="14" fill="#BAE6FD"/>
  <circle cx="28" cy="19" r="6" fill="#0EA5E9"/>
  <circle cx="50" cy="19" r="6" fill="#38BDF8"/>
  <circle cx="72" cy="19" r="6" fill="#7DD3FC"/>
  <text x="320" y="24" text-anchor="middle" font-family="'JetBrains Mono',Consolas,monospace" font-size="12" fill="#0369A1">checorazza@github: ~</text>
  <g font-family="'JetBrains Mono','Fira Code',Consolas,monospace" font-size="15">
    <text x="28" y="78" fill="#0284C7">checorazza:~$<tspan fill="#0B2A43"> whoami</tspan></text>

    <text x="28" y="122" fill="#0369A1">name</text>
    <text x="160" y="122" fill="#0B2A43">Checo</text>

    <text x="28" y="160" fill="#0369A1">role</text>
    <text x="160" y="160" fill="#0B2A43">Full-Stack Engineer</text>

    <text x="28" y="198" fill="#0369A1">origin</text>
    <text x="160" y="198" fill="#0B2A43">Mendoza, Argentina 🇦🇷</text>

    <text x="28" y="236" fill="#0369A1">studying</text>
    <text x="160" y="236" fill="#0B2A43">Software Engineering</text>

    <text x="28" y="274" fill="#0369A1">interests</text>
    <text x="160" y="274" fill="#0B2A43">AI/ML · open source</text>

    <text x="28" y="312" fill="#0369A1">languages</text>
    <text x="160" y="312" fill="#0B2A43">ES native · EN C1 · IT B1 · FR A1</text>

    <text x="28" y="350" fill="#0369A1">status</text>
    <text x="160" y="350" fill="#0B2A43">working and studying!!</text>

    <text x="28" y="404" fill="#0284C7">checorazza:~$<tspan fill="#0369A1"> █</tspan>
      <animate attributeName="opacity" values="1;0;1" dur="1.2s" repeatCount="indefinite"/>
    </text>
  </g>
</svg>
